<?xml version="1.0" encoding="UTF-8" standalone="no"?>
<!-- Created with Inkscape (http://www.inkscape.org/) -->

<svg
   width="32.0px"
   height="32.0px"
   viewBox="0 0 32.0 32.0"
   version="1.1"
   id="SVGRoot"
   sodipodi:docname="Foddy-Anyway-one-Path-Icon.svg"
   inkscape:version="1.2.2 (b0a84865, 2022-12-01)"
   xmlns:inkscape="http://www.inkscape.org/namespaces/inkscape"
   xmlns:sodipodi="http://sodipodi.sourceforge.net/DTD/sodipodi-0.dtd"
   xmlns="http://www.w3.org/2000/svg"
   xmlns:svg="http://www.w3.org/2000/svg">
  <sodipodi:namedview
     id="namedview1054"
     pagecolor="#ffffff"
     bordercolor="#000000"
     borderopacity="0.25"
     inkscape:showpageshadow="2"
     inkscape:pageopacity="0.0"
     inkscape:pagecheckerboard="0"
     inkscape:deskcolor="#d1d1d1"
     inkscape:document-units="px"
     showgrid="true"
     inkscape:zoom="22.627417"
     inkscape:cx="17.036854"
     inkscape:cy="15.269087"
     inkscape:window-width="1704"
     inkscape:window-height="1205"
     inkscape:window-x="718"
     inkscape:window-y="149"
     inkscape:window-maximized="0"
     inkscape:current-layer="layer1"
     showguides="true">
    <inkscape:grid
       type="xygrid"
       id="grid1540" />
    <sodipodi:guide
       position="-0.4375,26.03125"
       orientation="0.70710678,-0.70710678"
       id="guide28961"
       inkscape:locked="false" />
  </sodipodi:namedview>
  <defs
     id="defs1049">
    <inkscape:path-effect
       effect="bspline"
       id="path-effect26053"
       is_visible="true"
       lpeversion="1"
       weight="33.333333"
       steps="2"
       helper_size="0"
       apply_no_weight="true"
       apply_with_weight="true"
       only_selected="false" />
  </defs>
  <g
     inkscape:label="Layer 1"
     inkscape:groupmode="layer"
     id="layer1">
    <path
       id="path7757"
       style="fill:none;fill-opacity:1;stroke:#000000;stroke-width:0.0945567;stroke-linecap:butt;stroke-linejoin:miter;stroke-miterlimit:4;stroke-dasharray:none"
       d="m 25.061094,1.7060034 c -1.429107,0.3485536 -3.805228,1.0518609 -5.021307,2.241478 -1.231643,1.2154155 -1.113581,2.1582282 -0.866263,3.6234636 1.443803,0.2382374 2.378673,0.3380548 3.59157,-0.8488558 1.23402,-1.2127843 1.957016,-3.5576892 2.296,-5.0160858 z"
       sodipodi:nodetypes="ccccc" />
    <path
       id="path26035"
       style="fill:none;fill-opacity:1;stroke:#000000;stroke-width:0.0915561;stroke-linecap:butt;stroke-linejoin:miter;stroke-miterlimit:4;stroke-dasharray:none"
       d="m 11.190243,5.250845 c 0.320039,1.3878977 0.971999,3.6970088 2.108945,4.88891 1.161734,1.207284 2.075995,1.104475 3.497636,0.882891 C 17.045092,9.6276783 17.153109,8.7237593 16.018774,7.5349741 14.859615,6.3254213 12.598118,5.5968298 11.190248,5.250844 Z"
       sodipodi:nodetypes="ccccc" />
    <path
       id="path26037"
       style="fill:#000000;fill-opacity:0;stroke:#000000;stroke-width:0.0945567;stroke-linecap:butt;stroke-linejoin:miter;stroke-miterlimit:4;stroke-dasharray:none"
       d="m 8.35829,11.352203 c 0.3568586,1.427056 1.0739725,3.799047 2.270641,5.008187 1.222557,1.224554 2.164668,1.101011 3.628441,0.845175 0.229839,-1.445161 0.324214,-2.380598 -0.869728,-3.586572 -1.219942,-1.226945 -3.5690111,-1.936292 -5.029354,-2.26679 z"
       sodipodi:nodetypes="ccccc" />
    <path
       id="path26039"
       style="fill:none;fill-opacity:1;stroke:#000000;stroke-width:0.0945567;stroke-linecap:butt;stroke-linejoin:miter;stroke-miterlimit:4;stroke-dasharray:none"
       d="m 21.465622,19.061261 c -0.342722,-1.430518 -1.036333,-3.809489 -2.220977,-5.030409 -1.21038,-1.23659 -2.153668,-1.122376 -3.619902,-0.881035 -0.244124,1.442819 -0.347753,2.377275 0.834199,3.595003 1.20774,1.238956 3.549678,1.971512 5.006679,2.316443 z"
       sodipodi:nodetypes="ccccc" />
    <path
       id="path26041"
       style="fill:none;fill-opacity:1;stroke:#000000;stroke-width:0.0945567;stroke-linecap:butt;stroke-linejoin:miter;stroke-miterlimit:4;stroke-dasharray:none"
       d="m 6.6464951,24.585703 c 1.416403,0.39704 3.8321019,0.949305 5.4752889,0.508885 1.669403,-0.455271 2.028849,-1.334836 2.531831,-2.733081 -1.141459,-0.915638 -1.907258,-1.461073 -3.546345,-1.021451 -1.6701851,0.451813 -3.4501782,2.140874 -4.4607749,3.245647 z"
       sodipodi:nodetypes="ccccc" />
    <path
       id="path26043"
       style="fill:none;fill-opacity:1;stroke:#000000;stroke-width:0.0957994;stroke-linecap:butt;stroke-linejoin:miter;stroke-miterlimit:4;stroke-dasharray:none"
       d="m 24.565373,14.283971 c -0.304562,-1.356436 -0.945629,-3.61536 -2.17643,-4.7957865 -1.258058,-1.1958421 -2.290041,-1.1122732 -3.897191,-0.9222597 -0.334651,1.3530732 -0.492105,2.2307932 0.73592,3.4081422 1.25507,1.198005 3.768629,1.947824 5.3377,2.309907 z"
       sodipodi:nodetypes="ccccc" />
    <path
       style="fill:none;fill-opacity:0;stroke:#000000;stroke-width:0.0895561;stroke-linecap:butt;stroke-linejoin:miter;stroke-miterlimit:4;stroke-dasharray:none"
       d="m 19.160529,7.5594347 c -1.753072,2.4866803 -3.505979,4.9731263 -4.343577,7.4824713 -0.837598,2.509345 -0.759975,5.040639 -0.08719,7.381867 0.672784,2.341228 1.939888,4.491798 3.206491,6.641516"
       id="path26051"
       sodipodi:nodetypes="cccc"
       inkscape:original-d="m 19.160529,7.5594347 c -1.752053,2.4873983 -3.50496,4.9738453 -5.258829,7.4594913 0.07862,2.532295 0.156245,5.063589 0.232872,7.594034 1.268276,2.151861 2.535381,4.302431 3.801679,6.452329"
       inkscape:path-effect="#path-effect26053" />
    <path
       id="path26055"
       style="fill:none;fill-opacity:1;stroke:#000000;stroke-width:0.0945567;stroke-linecap:butt;stroke-linejoin:miter;stroke-miterlimit:4;stroke-dasharray:none"
       d="m 22.291525,22.119697 c -0.995316,-1.083134 -2.758576,-2.824257 -4.387529,-3.314715 -1.659059,-0.49163 -2.427658,0.06696 -3.591317,0.991131 0.48857,1.379358 0.85259,2.246209 2.477635,2.735188 1.657906,0.494983 4.060425,-0.0042 5.501211,-0.411604 z"
       sodipodi:nodetypes="ccccc" />
  </g>
</svg>
